<?xml version="1.0" encoding="UTF-8" standalone="no"?>

<!--
Copyright 2015 Urs Fässler, www.bitzgi.ch
SPDX-License-Identifier:	GPL-3.0+
-->

<?xml-stylesheet type="text/css" href="geouhr.css" ?>    

<svg xmlns:svg="http://www.w3.org/2000/svg" 
    xmlns:xlink="http://www.w3.org/1999/xlink" 
    xmlns="http://www.w3.org/2000/svg" 
    version="1.1" width="100%" height="100%" 
    viewBox="0 0 400 400"
    onload="init(evt);" >
  <script xlink:href="helper.js" type="text/javascript" />
  <script xlink:href="geouhr.js" type="text/javascript" />
  <rect x="1" y="1" width="400" height="400" fill="#f0f0f0" stroke="black" stroke-width="2" rx="5" />
  <g transform="translate(200,200)">
    <circle cx="0" cy="0" r="190" class="ring18" />
    <path id="arc18" class="arc18" />
    <circle cx="0" cy="0" r="180" class="ring17" />
    <path id="arc17" class="arc17" />
    <circle cx="0" cy="0" r="170" class="ring16" />
    <path id="arc16" class="arc16" />
    <circle cx="0" cy="0" r="160" class="ring15" />
    <path id="arc15" class="arc15" />
    <circle cx="0" cy="0" r="150" class="ring14" />
    <path id="arc14" class="arc14" />
    <circle cx="0" cy="0" r="140" class="ring13" />
    <path id="arc13" class="arc13" />
    <circle cx="0" cy="0" r="130" class="ring12" />
    <path id="arc12" class="arc12" />
    <circle cx="0" cy="0" r="120" class="ring11" />
    <path id="arc11" class="arc11" />
    <circle cx="0" cy="0" r="110" class="ring10" />
    <path id="arc10" class="arc10" />
    <circle cx="0" cy="0" r="100" class="ring9" />
    <path id="arc9" class="arc9" />
    <circle cx="0" cy="0" r="90" class="ring8" />
    <path id="arc8" class="arc8" />
    <circle cx="0" cy="0" r="80" class="ring7" />
    <path id="arc7" class="arc7" />
    <circle cx="0" cy="0" r="70" class="ring6" />
    <path id="arc6" class="arc6" />
    <circle cx="0" cy="0" r="60" class="ring5" />
    <path id="arc5" class="arc5" />
    <circle cx="0" cy="0" r="50" class="ring4" />
    <path id="arc4" class="arc4" />
    <circle cx="0" cy="0" r="40" class="ring3" />
    <path id="arc3" class="arc3" />
    <circle cx="0" cy="0" r="30" class="ring2" />
    <path id="arc2" class="arc2" />
    <circle cx="0" cy="0" r="20" class="ring1" />
    <path id="arc1" class="arc1" />
    <circle cx="0" cy="0" r="10" class="ring0" />
    <circle cx="0" cy="0" r="10" class="ring1Foreground">
        <animate id="secondCircle"
          attributeType="XML"
            attributeName="opacity"
            dur="1s"
            values="1;0;1"
            keyTimes="0;0.5;1"
        />
    </circle>  
  </g>
    <text id="debug" x="10" y="20">Hallo</text>
</svg>

