<?xml version="1.0" encoding="UTF-8" standalone="no"?>

<!--
Copyright 2015 Urs Fässler, www.bitzgi.ch
SPDX-License-Identifier:	GPL-3.0+
-->

<?xml-stylesheet type="text/css" href="geouhr.css" ?>    

<svg
  xmlns:svg="http://www.w3.org/2000/svg"
  xmlns:xlink="http://www.w3.org/1999/xlink"
  xmlns="http://www.w3.org/2000/svg"
  version="1.1"
  width="100%"
  height="100%"
  viewBox="0 0 405 720"
  onload="init(evt);"
>
  <script xlink:href="pie.js" type="text/javascript" />
  <script xlink:href="bigNumber.js" type="text/javascript" />
  <script xlink:href="earthAge.js" type="text/javascript" />
  <script xlink:href="geouhr.js" type="text/javascript" />
  <g transform="matrix(1,0,0,1,202.5,0)">
    <rect id="background" x="-302.5" y="-100" width="605" height="920" />
    <g transform="translate(0,290)">
      <circle cx="0" cy="0" r="189.9" id="ring18" />
      <path id="arc18" />
      <circle cx="0" cy="0" r="179.9" id="ring17" />
      <path id="arc17" />
      <circle cx="0" cy="0" r="169.9" id="ring16" />
      <path id="arc16" />
      <circle cx="0" cy="0" r="159.9" id="ring15" />
      <path id="arc15" />
      <circle cx="0" cy="0" r="149.9" id="ring14" />
      <path id="arc14" />
      <circle cx="0" cy="0" r="139.9" id="ring13" />
      <path id="arc13" />
      <circle cx="0" cy="0" r="129.9" id="ring12" />
      <path id="arc12" />
      <circle cx="0" cy="0" r="119.9" id="ring11" />
      <path id="arc11" />
      <circle cx="0" cy="0" r="109.9" id="ring10" />
      <path id="arc10" />
      <circle cx="0" cy="0" r="99.9" id="ring9" />
      <path id="arc9" />
      <circle cx="0" cy="0" r="89.9" id="ring8" />
      <path id="arc8" />
      <circle cx="0" cy="0" r="79.9" id="ring7" />
      <path id="arc7" />
      <circle cx="0" cy="0" r="69.9" id="ring6" />
      <path id="arc6" />
      <circle cx="0" cy="0" r="59.9" id="ring5" />
      <path id="arc5" />
      <circle cx="0" cy="0" r="49.9" id="ring4" />
      <path id="arc4" />
      <circle cx="0" cy="0" r="39.9" id="ring3" />
      <path id="arc3" />
      <circle cx="0" cy="0" r="29.9" id="ring2" />
      <path id="arc2" />
      <circle cx="0" cy="0" r="19.9" id="ring1" />
      <path id="arc1" />
      <circle cx="0" cy="0" r="9.9" id="ring0" />
      <circle cx="0" cy="0" r="10" id="arc0">
          <animate
            id="centerAnimation"
            onbegin="updateSeconds();"
            attributeType="XML"
            attributeName="opacity"
            dur="0.25s"
            values="1;0;1"
            keyTimes="0;0.5;1"
          />
      </circle>
    </g>
    <g text-anchor="middle">
      <text id="label" x="0" y="547">Alter der Erde</text>
      <text id="time"  x="0" y="599">Sekunden</text>
    </g>
  </g>
</svg>

